<svg width="1024" height="1024" viewBox="0 0 1024 1024" xmlns="http://www.w3.org/2000/svg">
  <defs>
    <linearGradient id="bg" x1="0%" y1="0%" x2="0%" y2="100%">
      <stop offset="0%" stop-color="#030712" />
      <stop offset="100%" stop-color="#040a18" />
    </linearGradient>
    <linearGradient id="line" x1="0%" y1="50%" x2="100%" y2="50%">
      <stop offset="0%" stop-color="#0ff" />
      <stop offset="100%" stop-color="#0077ff" />
    </linearGradient>
    <filter id="glow" x="-30%" y="-30%" width="160%" height="160%">
      <feGaussianBlur stdDeviation="12" result="coloredBlur" />
      <feMerge>
        <feMergeNode in="coloredBlur" />
        <feMergeNode in="SourceGraphic" />
      </feMerge>
    </filter>
  </defs>
  <rect width="1024" height="1024" fill="url(#bg)" />
  <g transform="translate(148 212)">
    <path d="M0 352c140-76 220-76 360 0s220 76 360 0" stroke="url(#line)" stroke-width="36" fill="none" filter="url(#glow)" />
    <path d="M0 444c140-76 220-76 360 0s220 76 360 0" stroke="url(#line)" stroke-width="36" fill="none" opacity="0.7" />
    <path d="M0 536c140-76 220-76 360 0s220 76 360 0" stroke="url(#line)" stroke-width="36" fill="none" opacity="0.45" />
  </g>
  <g transform="translate(220 176)">
    <g transform="translate(0 0)" fill="none" stroke="#00d8ff" stroke-width="28">
      <ellipse cx="110" cy="144" rx="110" ry="64" />
      <ellipse cx="110" cy="144" rx="110" ry="64" transform="rotate(60 110 144)" />
      <ellipse cx="110" cy="144" rx="110" ry="64" transform="rotate(120 110 144)" />
      <circle cx="110" cy="144" r="28" fill="#00d8ff" stroke="none" />
    </g>
  </g>
  <g fill="#f8fbff" font-family="'Inter', 'Segoe UI', sans-serif">
    <text x="360" y="360" font-size="72" font-weight="700">React Native</text>
    <text x="360" y="440" font-size="96" font-weight="800">ThreadForge</text>
    <text x="360" y="520" font-size="36" opacity="0.85">Stable. Fast. Multithreaded React Native Execution.</text>
  </g>
</svg>
